<mxfile host="app.diagrams.net" modified="2024-06-01T20:45:04.709Z" agent="Mozilla/5.0 (Windows NT 10.0; Win64; x64) AppleWebKit/537.36 (KHTML, like Gecko) Chrome/119.0.0.0 Safari/537.36" etag="QMKMCG1tDhrIlw-AdFUc" version="24.4.13" type="google">
  <diagram name="Trang-1" id="ec7sdAx8OIE10Ijj2_cM">
    <mxGraphModel grid="1" page="1" gridSize="10" guides="1" tooltips="1" connect="1" arrows="1" fold="1" pageScale="1" pageWidth="827" pageHeight="1169" math="0" shadow="0">
      <root>
        <mxCell id="0" />
        <mxCell id="1" parent="0" />
        <mxCell id="KKl4wDtsmyWI79_gOkJm-3" value="&lt;div&gt;Admin&lt;/div&gt;" style="shape=umlActor;verticalLabelPosition=bottom;verticalAlign=top;html=1;outlineConnect=0;" vertex="1" parent="1">
          <mxGeometry x="680" y="20" width="30" height="60" as="geometry" />
        </mxCell>
        <mxCell id="KKl4wDtsmyWI79_gOkJm-7" value="" style="endArrow=none;html=1;rounded=0;exitX=0.25;exitY=0;exitDx=0;exitDy=0;entryX=0;entryY=1;entryDx=0;entryDy=0;entryPerimeter=0;" edge="1" parent="1" source="vgJG3dUjOcsfkxwDwn8o-1" target="KKl4wDtsmyWI79_gOkJm-3">
          <mxGeometry width="50" height="50" relative="1" as="geometry">
            <mxPoint x="640" y="160" as="sourcePoint" />
            <mxPoint x="640" y="100" as="targetPoint" />
          </mxGeometry>
        </mxCell>
        <mxCell id="KKl4wDtsmyWI79_gOkJm-8" value="" style="endArrow=none;html=1;rounded=0;" edge="1" parent="1">
          <mxGeometry width="50" height="50" relative="1" as="geometry">
            <mxPoint x="640" y="160" as="sourcePoint" />
            <mxPoint x="640" y="160" as="targetPoint" />
          </mxGeometry>
        </mxCell>
        <mxCell id="KKl4wDtsmyWI79_gOkJm-13" value="&amp;lt;&amp;lt;software system&amp;gt;&amp;gt;&lt;div&gt;Chat application&lt;/div&gt;" style="whiteSpace=wrap;html=1;aspect=fixed;" vertex="1" parent="1">
          <mxGeometry x="453.88" y="161.64" width="98.36" height="98.36" as="geometry" />
        </mxCell>
        <mxCell id="KKl4wDtsmyWI79_gOkJm-14" value="" style="endArrow=none;html=1;rounded=0;entryX=-0.008;entryY=0.558;entryDx=0;entryDy=0;entryPerimeter=0;exitX=1;exitY=0.5;exitDx=0;exitDy=0;" edge="1" parent="1" target="vgJG3dUjOcsfkxwDwn8o-1" source="KKl4wDtsmyWI79_gOkJm-13">
          <mxGeometry width="50" height="50" relative="1" as="geometry">
            <mxPoint x="520" y="199.5" as="sourcePoint" />
            <mxPoint x="600" y="199.5" as="targetPoint" />
          </mxGeometry>
        </mxCell>
        <mxCell id="KKl4wDtsmyWI79_gOkJm-15" value="CardReader" style="rounded=0;whiteSpace=wrap;html=1;" vertex="1" parent="1">
          <mxGeometry x="210" y="80" width="120" height="60" as="geometry" />
        </mxCell>
        <mxCell id="KKl4wDtsmyWI79_gOkJm-16" value="Cash Dispenser" style="rounded=0;whiteSpace=wrap;html=1;" vertex="1" parent="1">
          <mxGeometry x="213.84" y="410" width="120" height="60" as="geometry" />
        </mxCell>
        <mxCell id="KKl4wDtsmyWI79_gOkJm-17" value="Keyboard/Display" style="rounded=0;whiteSpace=wrap;html=1;" vertex="1" parent="1">
          <mxGeometry x="210" y="320" width="120" height="60" as="geometry" />
        </mxCell>
        <mxCell id="KKl4wDtsmyWI79_gOkJm-18" value="Receipt Printer" style="rounded=0;whiteSpace=wrap;html=1;" vertex="1" parent="1">
          <mxGeometry x="210" y="210" width="120" height="60" as="geometry" />
        </mxCell>
        <mxCell id="KKl4wDtsmyWI79_gOkJm-19" value="" style="endArrow=none;html=1;rounded=0;exitX=1;exitY=0.5;exitDx=0;exitDy=0;entryX=0.406;entryY=1.029;entryDx=0;entryDy=0;entryPerimeter=0;" edge="1" parent="1" source="KKl4wDtsmyWI79_gOkJm-16" target="KKl4wDtsmyWI79_gOkJm-13">
          <mxGeometry width="50" height="50" relative="1" as="geometry">
            <mxPoint x="390" y="300" as="sourcePoint" />
            <mxPoint x="440" y="250" as="targetPoint" />
          </mxGeometry>
        </mxCell>
        <mxCell id="KKl4wDtsmyWI79_gOkJm-20" value="" style="endArrow=none;html=1;rounded=0;entryX=0;entryY=1;entryDx=0;entryDy=0;exitX=1;exitY=0.75;exitDx=0;exitDy=0;" edge="1" parent="1" source="KKl4wDtsmyWI79_gOkJm-17" target="KKl4wDtsmyWI79_gOkJm-13">
          <mxGeometry width="50" height="50" relative="1" as="geometry">
            <mxPoint x="330" y="280" as="sourcePoint" />
            <mxPoint x="380" y="230" as="targetPoint" />
          </mxGeometry>
        </mxCell>
        <mxCell id="KKl4wDtsmyWI79_gOkJm-21" value="" style="endArrow=none;html=1;rounded=0;exitX=1;exitY=0.25;exitDx=0;exitDy=0;" edge="1" parent="1" source="KKl4wDtsmyWI79_gOkJm-18" target="KKl4wDtsmyWI79_gOkJm-13">
          <mxGeometry width="50" height="50" relative="1" as="geometry">
            <mxPoint x="330" y="200" as="sourcePoint" />
            <mxPoint x="380" y="150" as="targetPoint" />
          </mxGeometry>
        </mxCell>
        <mxCell id="KKl4wDtsmyWI79_gOkJm-22" value="" style="endArrow=none;html=1;rounded=0;entryX=0.015;entryY=0.35;entryDx=0;entryDy=0;entryPerimeter=0;" edge="1" parent="1" target="KKl4wDtsmyWI79_gOkJm-13">
          <mxGeometry width="50" height="50" relative="1" as="geometry">
            <mxPoint x="330" y="135" as="sourcePoint" />
            <mxPoint x="380" y="85" as="targetPoint" />
          </mxGeometry>
        </mxCell>
        <mxCell id="KKl4wDtsmyWI79_gOkJm-23" value="ATM Customer&lt;div&gt;&lt;br&gt;&lt;/div&gt;" style="shape=umlActor;verticalLabelPosition=bottom;verticalAlign=top;html=1;outlineConnect=0;" vertex="1" parent="1">
          <mxGeometry x="50" y="190" width="30" height="60" as="geometry" />
        </mxCell>
        <mxCell id="KKl4wDtsmyWI79_gOkJm-30" value="" style="endArrow=none;html=1;rounded=0;exitX=0.75;exitY=0.1;exitDx=0;exitDy=0;exitPerimeter=0;" edge="1" parent="1" source="KKl4wDtsmyWI79_gOkJm-23">
          <mxGeometry width="50" height="50" relative="1" as="geometry">
            <mxPoint x="160" y="160" as="sourcePoint" />
            <mxPoint x="210" y="110" as="targetPoint" />
          </mxGeometry>
        </mxCell>
        <mxCell id="KKl4wDtsmyWI79_gOkJm-31" value="" style="endArrow=none;html=1;rounded=0;exitX=1;exitY=0.3333333333333333;exitDx=0;exitDy=0;exitPerimeter=0;entryX=0;entryY=0.25;entryDx=0;entryDy=0;" edge="1" parent="1" source="KKl4wDtsmyWI79_gOkJm-23" target="KKl4wDtsmyWI79_gOkJm-18">
          <mxGeometry width="50" height="50" relative="1" as="geometry">
            <mxPoint x="160" y="240" as="sourcePoint" />
            <mxPoint x="210" y="190" as="targetPoint" />
          </mxGeometry>
        </mxCell>
        <mxCell id="KKl4wDtsmyWI79_gOkJm-32" value="" style="endArrow=none;html=1;rounded=0;entryX=0.093;entryY=0.049;entryDx=0;entryDy=0;entryPerimeter=0;" edge="1" parent="1" source="KKl4wDtsmyWI79_gOkJm-23" target="KKl4wDtsmyWI79_gOkJm-17">
          <mxGeometry width="50" height="50" relative="1" as="geometry">
            <mxPoint x="160" y="320" as="sourcePoint" />
            <mxPoint x="210" y="270" as="targetPoint" />
          </mxGeometry>
        </mxCell>
        <mxCell id="KKl4wDtsmyWI79_gOkJm-33" value="" style="endArrow=none;html=1;rounded=0;entryX=0;entryY=0.25;entryDx=0;entryDy=0;" edge="1" parent="1" source="KKl4wDtsmyWI79_gOkJm-23" target="KKl4wDtsmyWI79_gOkJm-16">
          <mxGeometry width="50" height="50" relative="1" as="geometry">
            <mxPoint x="160" y="400" as="sourcePoint" />
            <mxPoint x="210" y="350" as="targetPoint" />
          </mxGeometry>
        </mxCell>
        <mxCell id="KKl4wDtsmyWI79_gOkJm-34" value="1&lt;div&gt;&lt;br&gt;&lt;/div&gt;&lt;div&gt;&lt;br&gt;&lt;/div&gt;&lt;div&gt;1&lt;/div&gt;" style="text;html=1;align=center;verticalAlign=middle;whiteSpace=wrap;rounded=0;" vertex="1" parent="1">
          <mxGeometry x="620" y="110" width="70" height="60" as="geometry" />
        </mxCell>
        <mxCell id="KKl4wDtsmyWI79_gOkJm-37" value="" style="triangle;whiteSpace=wrap;html=1;fillColor=#0d0c0c;direction=west;" vertex="1" parent="1">
          <mxGeometry x="585" y="190" width="10" height="20" as="geometry" />
        </mxCell>
        <mxCell id="KKl4wDtsmyWI79_gOkJm-38" value="1&amp;nbsp; &amp;nbsp; &amp;nbsp; &amp;nbsp; &amp;nbsp; &amp;nbsp;1..*" style="text;html=1;align=center;verticalAlign=middle;whiteSpace=wrap;rounded=0;" vertex="1" parent="1">
          <mxGeometry x="560" y="190" width="80" height="30" as="geometry" />
        </mxCell>
        <mxCell id="KKl4wDtsmyWI79_gOkJm-40" value="Interacts with&amp;nbsp;" style="text;html=1;align=center;verticalAlign=middle;whiteSpace=wrap;rounded=0;" vertex="1" parent="1">
          <mxGeometry x="560" y="131.64" width="60" height="30" as="geometry" />
        </mxCell>
        <mxCell id="KKl4wDtsmyWI79_gOkJm-41" value="" style="triangle;whiteSpace=wrap;html=1;fillColor=#0d0c0c;direction=north;rotation=-45;" vertex="1" parent="1">
          <mxGeometry x="355.53" y="122.91" width="10.84" height="8.73" as="geometry" />
        </mxCell>
        <mxCell id="KKl4wDtsmyWI79_gOkJm-44" value="Output to&lt;div&gt;&lt;br&gt;&lt;/div&gt;" style="text;html=1;align=center;verticalAlign=middle;whiteSpace=wrap;rounded=0;rotation=30;" vertex="1" parent="1">
          <mxGeometry x="366.36999999999995" y="131.64" width="60" height="30" as="geometry" />
        </mxCell>
        <mxCell id="KKl4wDtsmyWI79_gOkJm-47" value="1..*" style="text;html=1;align=center;verticalAlign=middle;whiteSpace=wrap;rounded=0;" vertex="1" parent="1">
          <mxGeometry x="330" y="110" width="30" height="20" as="geometry" />
        </mxCell>
        <mxCell id="KKl4wDtsmyWI79_gOkJm-48" value="1" style="text;html=1;align=center;verticalAlign=middle;whiteSpace=wrap;rounded=0;" vertex="1" parent="1">
          <mxGeometry x="400" y="160" width="60" height="30" as="geometry" />
        </mxCell>
        <mxCell id="KKl4wDtsmyWI79_gOkJm-50" value="Input to" style="text;html=1;align=center;verticalAlign=middle;whiteSpace=wrap;rounded=0;rotation=15;" vertex="1" parent="1">
          <mxGeometry x="354" y="160" width="60" height="30" as="geometry" />
        </mxCell>
        <mxCell id="KKl4wDtsmyWI79_gOkJm-51" value="" style="triangle;whiteSpace=wrap;html=1;rotation=30;fillColor=#1a1919;" vertex="1" parent="1">
          <mxGeometry x="349.51000000000005" y="155.17000000000002" width="10.49" height="14.83" as="geometry" />
        </mxCell>
        <mxCell id="KKl4wDtsmyWI79_gOkJm-52" value="Output&lt;div&gt;&amp;nbsp;to&lt;/div&gt;" style="text;html=1;align=center;verticalAlign=middle;whiteSpace=wrap;rounded=0;" vertex="1" parent="1">
          <mxGeometry x="355.53" y="190" width="60" height="30" as="geometry" />
        </mxCell>
        <mxCell id="KKl4wDtsmyWI79_gOkJm-53" value="1..*&amp;nbsp; &amp;nbsp; &amp;nbsp; &amp;nbsp; &amp;nbsp; &amp;nbsp; &amp;nbsp; &amp;nbsp; &amp;nbsp; &amp;nbsp; &amp;nbsp; 1" style="text;html=1;align=center;verticalAlign=middle;whiteSpace=wrap;rounded=0;rotation=-5;" vertex="1" parent="1">
          <mxGeometry x="333.84" y="210" width="106.16" height="35" as="geometry" />
        </mxCell>
        <mxCell id="KKl4wDtsmyWI79_gOkJm-56" value="" style="triangle;whiteSpace=wrap;html=1;fillColor=#121111;direction=west;" vertex="1" parent="1">
          <mxGeometry x="378.96000000000004" y="222.5" width="10.08" height="10" as="geometry" />
        </mxCell>
        <mxCell id="KKl4wDtsmyWI79_gOkJm-60" value="Interacts&lt;div&gt;with&amp;nbsp;&lt;/div&gt;" style="text;html=1;align=center;verticalAlign=middle;whiteSpace=wrap;rounded=0;rotation=-45;" vertex="1" parent="1">
          <mxGeometry x="349.51" y="270" width="60" height="30" as="geometry" />
        </mxCell>
        <mxCell id="KKl4wDtsmyWI79_gOkJm-62" value="" style="triangle;whiteSpace=wrap;html=1;fillColor=#121111;direction=south;rotation=-45;" vertex="1" parent="1">
          <mxGeometry x="399.02" y="270" width="10.49" height="10" as="geometry" />
        </mxCell>
        <mxCell id="KKl4wDtsmyWI79_gOkJm-64" value="1..*&amp;nbsp; &amp;nbsp; &amp;nbsp; &amp;nbsp; &amp;nbsp; &amp;nbsp; &amp;nbsp; &amp;nbsp; &amp;nbsp; &amp;nbsp; &amp;nbsp; &amp;nbsp; &amp;nbsp; &amp;nbsp; &amp;nbsp;1" style="text;html=1;align=center;verticalAlign=middle;whiteSpace=wrap;rounded=0;rotation=-45;" vertex="1" parent="1">
          <mxGeometry x="323.29" y="280" width="136.71" height="30" as="geometry" />
        </mxCell>
        <mxCell id="KKl4wDtsmyWI79_gOkJm-65" value="" style="triangle;whiteSpace=wrap;html=1;fillColor=#181616;direction=west;rotation=-55;" vertex="1" parent="1">
          <mxGeometry x="440.75" y="351.43" width="10" height="10" as="geometry" />
        </mxCell>
        <mxCell id="KKl4wDtsmyWI79_gOkJm-66" value="Output to" style="text;html=1;align=center;verticalAlign=middle;whiteSpace=wrap;rounded=0;rotation=-45;" vertex="1" parent="1">
          <mxGeometry x="400" y="330" width="60" height="30" as="geometry" />
        </mxCell>
        <mxCell id="KKl4wDtsmyWI79_gOkJm-67" value="1..*&amp;nbsp; &amp;nbsp; &amp;nbsp; &amp;nbsp; &amp;nbsp; &amp;nbsp; &amp;nbsp; &amp;nbsp; &amp;nbsp; &amp;nbsp; &amp;nbsp; &amp;nbsp; &amp;nbsp; &amp;nbsp; &amp;nbsp; &amp;nbsp; &amp;nbsp; &amp;nbsp; &amp;nbsp; &amp;nbsp; &amp;nbsp; &amp;nbsp; &amp;nbsp; &amp;nbsp; &amp;nbsp;1" style="text;html=1;align=center;verticalAlign=middle;whiteSpace=wrap;rounded=0;rotation=-50;" vertex="1" parent="1">
          <mxGeometry x="334.63" y="340" width="190.74" height="30" as="geometry" />
        </mxCell>
        <mxCell id="KKl4wDtsmyWI79_gOkJm-76" value="1" style="text;html=1;align=center;verticalAlign=middle;whiteSpace=wrap;rounded=0;" vertex="1" parent="1">
          <mxGeometry x="160" y="410" width="60" height="30" as="geometry" />
        </mxCell>
        <mxCell id="KKl4wDtsmyWI79_gOkJm-78" value="1" style="text;html=1;align=center;verticalAlign=middle;whiteSpace=wrap;rounded=0;" vertex="1" parent="1">
          <mxGeometry x="60" y="280" width="60" height="30" as="geometry" />
        </mxCell>
        <mxCell id="KKl4wDtsmyWI79_gOkJm-79" value="1" style="text;html=1;align=center;verticalAlign=middle;whiteSpace=wrap;rounded=0;" vertex="1" parent="1">
          <mxGeometry x="180" y="280" width="60" height="30" as="geometry" />
        </mxCell>
        <mxCell id="KKl4wDtsmyWI79_gOkJm-80" value="1" style="text;html=1;align=center;verticalAlign=middle;whiteSpace=wrap;rounded=0;" vertex="1" parent="1">
          <mxGeometry x="80" y="220" width="60" height="30" as="geometry" />
        </mxCell>
        <mxCell id="KKl4wDtsmyWI79_gOkJm-81" value="1" style="text;html=1;align=center;verticalAlign=middle;whiteSpace=wrap;rounded=0;" vertex="1" parent="1">
          <mxGeometry x="170" y="195" width="60" height="30" as="geometry" />
        </mxCell>
        <mxCell id="KKl4wDtsmyWI79_gOkJm-82" value="1" style="text;html=1;align=center;verticalAlign=middle;whiteSpace=wrap;rounded=0;" vertex="1" parent="1">
          <mxGeometry x="80" y="190" width="60" height="20" as="geometry" />
        </mxCell>
        <mxCell id="KKl4wDtsmyWI79_gOkJm-83" value="1" style="text;html=1;align=center;verticalAlign=middle;whiteSpace=wrap;rounded=0;" vertex="1" parent="1">
          <mxGeometry x="170" y="79.99999999999999" width="60" height="30" as="geometry" />
        </mxCell>
        <mxCell id="KKl4wDtsmyWI79_gOkJm-84" value="1" style="text;html=1;align=center;verticalAlign=middle;whiteSpace=wrap;rounded=0;" vertex="1" parent="1">
          <mxGeometry x="50" y="147.58999999999997" width="60" height="30" as="geometry" />
        </mxCell>
        <mxCell id="vgJG3dUjOcsfkxwDwn8o-1" value="&amp;lt;&amp;lt;external user &amp;gt;&amp;gt;&lt;div&gt;Manager&lt;/div&gt;" style="rounded=0;whiteSpace=wrap;html=1;" vertex="1" parent="1">
          <mxGeometry x="650" y="195" width="110" height="45" as="geometry" />
        </mxCell>
      </root>
    </mxGraphModel>
  </diagram>
</mxfile>
